<?xml version="1.0" encoding="UTF-8" standalone="no"?><svg xmlns:svg="http://www.w3.org/2000/svg" xmlns="http://www.w3.org/2000/svg" xmlns:xlink="http://www.w3.org/1999/xlink" version="1.0" width="64px" height="64px" viewBox="0 0 128 128" xml:space="preserve"><rect x="0" y="0" width="100%" height="100%" fill="#000000" /><g><path d="M61.5 0h5a25.8 25.8 0 0 1 5.25 9 26.35 26.35 0 0 1 1.3 10.8l-5 .1A23.38 23.38 0 0 0 67 10a32.3 32.3 0 0 0-5.5-10z" fill="#ffffff" fill-opacity="0.1"/><path d="M61.5 0h5a25.8 25.8 0 0 1 5.25 9 26.35 26.35 0 0 1 1.3 10.8l-5 .1A23.38 23.38 0 0 0 67 10a32.3 32.3 0 0 0-5.5-10z" fill="#ffffff" fill-opacity="0.12" transform="rotate(15 64 64)"/><path d="M61.5 0h5a25.8 25.8 0 0 1 5.25 9 26.35 26.35 0 0 1 1.3 10.8l-5 .1A23.38 23.38 0 0 0 67 10a32.3 32.3 0 0 0-5.5-10z" fill="#ffffff" fill-opacity="0.15" transform="rotate(30 64 64)"/><path d="M61.5 0h5a25.8 25.8 0 0 1 5.25 9 26.35 26.35 0 0 1 1.3 10.8l-5 .1A23.38 23.38 0 0 0 67 10a32.3 32.3 0 0 0-5.5-10z" fill="#ffffff" fill-opacity="0.18" transform="rotate(45 64 64)"/><path d="M61.5 0h5a25.8 25.8 0 0 1 5.25 9 26.35 26.35 0 0 1 1.3 10.8l-5 .1A23.38 23.38 0 0 0 67 10a32.3 32.3 0 0 0-5.5-10z" fill="#ffffff" fill-opacity="0.22" transform="rotate(60 64 64)"/><path d="M61.5 0h5a25.8 25.8 0 0 1 5.25 9 26.35 26.35 0 0 1 1.3 10.8l-5 .1A23.38 23.38 0 0 0 67 10a32.3 32.3 0 0 0-5.5-10z" fill="#ffffff" fill-opacity="0.25" transform="rotate(75 64 64)"/><path d="M61.5 0h5a25.8 25.8 0 0 1 5.25 9 26.35 26.35 0 0 1 1.3 10.8l-5 .1A23.38 23.38 0 0 0 67 10a32.3 32.3 0 0 0-5.5-10z" fill="#ffffff" fill-opacity="0.29" transform="rotate(90 64 64)"/><path d="M61.5 0h5a25.8 25.8 0 0 1 5.25 9 26.35 26.35 0 0 1 1.3 10.8l-5 .1A23.38 23.38 0 0 0 67 10a32.3 32.3 0 0 0-5.5-10z" fill="#ffffff" fill-opacity="0.34" transform="rotate(105 64 64)"/><path d="M61.5 0h5a25.8 25.8 0 0 1 5.25 9 26.35 26.35 0 0 1 1.3 10.8l-5 .1A23.38 23.38 0 0 0 67 10a32.3 32.3 0 0 0-5.5-10z" fill="#ffffff" fill-opacity="0.34" transform="rotate(120 64 64)"/><path d="M61.5 0h5a25.8 25.8 0 0 1 5.25 9 26.35 26.35 0 0 1 1.3 10.8l-5 .1A23.38 23.38 0 0 0 67 10a32.3 32.3 0 0 0-5.5-10z" fill="#ffffff" fill-opacity="0.42" transform="rotate(135 64 64)"/><path d="M61.5 0h5a25.8 25.8 0 0 1 5.25 9 26.35 26.35 0 0 1 1.3 10.8l-5 .1A23.38 23.38 0 0 0 67 10a32.3 32.3 0 0 0-5.5-10z" fill="#ffffff" fill-opacity="0.47" transform="rotate(150 64 64)"/><path d="M61.5 0h5a25.8 25.8 0 0 1 5.25 9 26.35 26.35 0 0 1 1.3 10.8l-5 .1A23.38 23.38 0 0 0 67 10a32.3 32.3 0 0 0-5.5-10z" fill="#ffffff" fill-opacity="0.52" transform="rotate(165 64 64)"/><path d="M61.5 0h5a25.8 25.8 0 0 1 5.25 9 26.35 26.35 0 0 1 1.3 10.8l-5 .1A23.38 23.38 0 0 0 67 10a32.3 32.3 0 0 0-5.5-10z" fill="#ffffff" fill-opacity="0.57" transform="rotate(180 64 64)"/><path d="M61.5 0h5a25.8 25.8 0 0 1 5.25 9 26.35 26.35 0 0 1 1.3 10.8l-5 .1A23.38 23.38 0 0 0 67 10a32.3 32.3 0 0 0-5.5-10z" fill="#ffffff" fill-opacity="0.62" transform="rotate(195 64 64)"/><path d="M61.5 0h5a25.8 25.8 0 0 1 5.25 9 26.35 26.35 0 0 1 1.3 10.8l-5 .1A23.38 23.38 0 0 0 67 10a32.3 32.3 0 0 0-5.5-10z" fill="#ffffff" fill-opacity="0.66" transform="rotate(210 64 64)"/><path d="M61.5 0h5a25.8 25.8 0 0 1 5.25 9 26.35 26.35 0 0 1 1.3 10.8l-5 .1A23.38 23.38 0 0 0 67 10a32.3 32.3 0 0 0-5.5-10z" fill="#ffffff" fill-opacity="0.71" transform="rotate(225 64 64)"/><path d="M61.5 0h5a25.8 25.8 0 0 1 5.25 9 26.35 26.35 0 0 1 1.3 10.8l-5 .1A23.38 23.38 0 0 0 67 10a32.3 32.3 0 0 0-5.5-10z" fill="#ffffff" fill-opacity="0.75" transform="rotate(240 64 64)"/><path d="M61.5 0h5a25.8 25.8 0 0 1 5.25 9 26.35 26.35 0 0 1 1.3 10.8l-5 .1A23.38 23.38 0 0 0 67 10a32.3 32.3 0 0 0-5.5-10z" fill="#ffffff" fill-opacity="0.8" transform="rotate(255 64 64)"/><path d="M61.5 0h5a25.8 25.8 0 0 1 5.25 9 26.35 26.35 0 0 1 1.3 10.8l-5 .1A23.38 23.38 0 0 0 67 10a32.3 32.3 0 0 0-5.5-10z" fill="#ffffff" fill-opacity="0.84" transform="rotate(270 64 64)"/><path d="M61.5 0h5a25.8 25.8 0 0 1 5.25 9 26.35 26.35 0 0 1 1.3 10.8l-5 .1A23.38 23.38 0 0 0 67 10a32.3 32.3 0 0 0-5.5-10z" fill="#ffffff" fill-opacity="0.87" transform="rotate(285 64 64)"/><path d="M61.5 0h5a25.8 25.8 0 0 1 5.25 9 26.35 26.35 0 0 1 1.3 10.8l-5 .1A23.38 23.38 0 0 0 67 10a32.3 32.3 0 0 0-5.5-10z" fill="#ffffff" fill-opacity="0.91" transform="rotate(300 64 64)"/><path d="M61.5 0h5a25.8 25.8 0 0 1 5.25 9 26.35 26.35 0 0 1 1.3 10.8l-5 .1A23.38 23.38 0 0 0 67 10a32.3 32.3 0 0 0-5.5-10z" fill="#ffffff" fill-opacity="0.94" transform="rotate(315 64 64)"/><path d="M61.5 0h5a25.8 25.8 0 0 1 5.25 9 26.35 26.35 0 0 1 1.3 10.8l-5 .1A23.38 23.38 0 0 0 67 10a32.3 32.3 0 0 0-5.5-10z" fill="#ffffff" fill-opacity="0.96" transform="rotate(330 64 64)"/><path d="M61.5 0h5a25.8 25.8 0 0 1 5.25 9 26.35 26.35 0 0 1 1.3 10.8l-5 .1A23.38 23.38 0 0 0 67 10a32.3 32.3 0 0 0-5.5-10z" fill="#ffffff" fill-opacity="1" transform="rotate(345 64 64)"/><animateTransform attributeName="transform" type="rotate" values="0 64 64;15 64 64;30 64 64;45 64 64;60 64 64;75 64 64;90 64 64;105 64 64;120 64 64;135 64 64;150 64 64;165 64 64;180 64 64;195 64 64;210 64 64;225 64 64;240 64 64;255 64 64;270 64 64;285 64 64;300 64 64;315 64 64;330 64 64;345 64 64" calcMode="discrete" dur="2640ms" repeatCount="indefinite"></animateTransform></g></svg>